<mxfile host="app.diagrams.net" agent="Mozilla/5.0 (X11; Ubuntu; Linux x86_64; rv:136.0) Gecko/20100101 Firefox/136.0" version="26.1.3">
  <diagram name="Page-1" id="K05C8u8iYZwIY8HteD_e">
    <mxGraphModel dx="683" dy="378" grid="1" gridSize="10" guides="1" tooltips="1" connect="1" arrows="1" fold="1" page="1" pageScale="1" pageWidth="850" pageHeight="1100" math="0" shadow="0">
      <root>
        <mxCell id="0" />
        <mxCell id="1" parent="0" />
        <mxCell id="pafL-I4zBN5O_H7WEH7i-31" style="edgeStyle=orthogonalEdgeStyle;rounded=0;orthogonalLoop=1;jettySize=auto;html=1;exitX=1;exitY=0.5;exitDx=0;exitDy=0;entryX=0;entryY=0.5;entryDx=0;entryDy=0;" edge="1" parent="1" source="pafL-I4zBN5O_H7WEH7i-1" target="pafL-I4zBN5O_H7WEH7i-2">
          <mxGeometry relative="1" as="geometry" />
        </mxCell>
        <mxCell id="pafL-I4zBN5O_H7WEH7i-1" value="Dataset Selection" style="rounded=1;whiteSpace=wrap;html=1;" vertex="1" parent="1">
          <mxGeometry y="240" width="120" height="40" as="geometry" />
        </mxCell>
        <mxCell id="pafL-I4zBN5O_H7WEH7i-25" style="edgeStyle=orthogonalEdgeStyle;rounded=0;orthogonalLoop=1;jettySize=auto;html=1;exitX=1;exitY=0.5;exitDx=0;exitDy=0;entryX=0;entryY=0.5;entryDx=0;entryDy=0;" edge="1" parent="1" source="pafL-I4zBN5O_H7WEH7i-2" target="pafL-I4zBN5O_H7WEH7i-3">
          <mxGeometry relative="1" as="geometry" />
        </mxCell>
        <mxCell id="pafL-I4zBN5O_H7WEH7i-2" value="Network Topology" style="rounded=1;whiteSpace=wrap;html=1;" vertex="1" parent="1">
          <mxGeometry x="160" y="240" width="120" height="40" as="geometry" />
        </mxCell>
        <mxCell id="pafL-I4zBN5O_H7WEH7i-26" style="edgeStyle=orthogonalEdgeStyle;rounded=0;orthogonalLoop=1;jettySize=auto;html=1;exitX=1;exitY=0.5;exitDx=0;exitDy=0;entryX=0;entryY=0.5;entryDx=0;entryDy=0;" edge="1" parent="1" source="pafL-I4zBN5O_H7WEH7i-3" target="pafL-I4zBN5O_H7WEH7i-21">
          <mxGeometry relative="1" as="geometry" />
        </mxCell>
        <mxCell id="pafL-I4zBN5O_H7WEH7i-3" value="&lt;div&gt;Short Training&lt;/div&gt;" style="rounded=1;whiteSpace=wrap;html=1;" vertex="1" parent="1">
          <mxGeometry x="320" y="240" width="120" height="40" as="geometry" />
        </mxCell>
        <mxCell id="pafL-I4zBN5O_H7WEH7i-28" style="edgeStyle=orthogonalEdgeStyle;rounded=0;orthogonalLoop=1;jettySize=auto;html=1;exitX=0.5;exitY=1;exitDx=0;exitDy=0;entryX=0.5;entryY=0;entryDx=0;entryDy=0;" edge="1" parent="1" source="pafL-I4zBN5O_H7WEH7i-4" target="pafL-I4zBN5O_H7WEH7i-16">
          <mxGeometry relative="1" as="geometry" />
        </mxCell>
        <mxCell id="pafL-I4zBN5O_H7WEH7i-4" value="First FPGA implementation" style="rounded=1;whiteSpace=wrap;html=1;" vertex="1" parent="1">
          <mxGeometry x="460" y="320" width="120" height="40" as="geometry" />
        </mxCell>
        <mxCell id="pafL-I4zBN5O_H7WEH7i-13" style="edgeStyle=orthogonalEdgeStyle;rounded=0;orthogonalLoop=1;jettySize=auto;html=1;exitX=0;exitY=0.5;exitDx=0;exitDy=0;" edge="1" parent="1" source="pafL-I4zBN5O_H7WEH7i-9" target="pafL-I4zBN5O_H7WEH7i-11">
          <mxGeometry relative="1" as="geometry" />
        </mxCell>
        <mxCell id="pafL-I4zBN5O_H7WEH7i-9" value="Long Training" style="rounded=1;whiteSpace=wrap;html=1;" vertex="1" parent="1">
          <mxGeometry x="320" y="400" width="120" height="40" as="geometry" />
        </mxCell>
        <mxCell id="pafL-I4zBN5O_H7WEH7i-14" style="edgeStyle=orthogonalEdgeStyle;rounded=0;orthogonalLoop=1;jettySize=auto;html=1;exitX=0;exitY=0.5;exitDx=0;exitDy=0;entryX=1;entryY=0.5;entryDx=0;entryDy=0;" edge="1" parent="1" source="pafL-I4zBN5O_H7WEH7i-11" target="pafL-I4zBN5O_H7WEH7i-12">
          <mxGeometry relative="1" as="geometry" />
        </mxCell>
        <mxCell id="pafL-I4zBN5O_H7WEH7i-11" value="Evaluations" style="rounded=1;whiteSpace=wrap;html=1;" vertex="1" parent="1">
          <mxGeometry x="160" y="400" width="120" height="40" as="geometry" />
        </mxCell>
        <mxCell id="pafL-I4zBN5O_H7WEH7i-12" value="Metrics" style="rounded=1;whiteSpace=wrap;html=1;" vertex="1" parent="1">
          <mxGeometry y="400" width="120" height="40" as="geometry" />
        </mxCell>
        <mxCell id="pafL-I4zBN5O_H7WEH7i-32" style="edgeStyle=orthogonalEdgeStyle;rounded=0;orthogonalLoop=1;jettySize=auto;html=1;exitX=0;exitY=0.5;exitDx=0;exitDy=0;entryX=1;entryY=0.5;entryDx=0;entryDy=0;" edge="1" parent="1" source="pafL-I4zBN5O_H7WEH7i-16" target="pafL-I4zBN5O_H7WEH7i-9">
          <mxGeometry relative="1" as="geometry" />
        </mxCell>
        <mxCell id="pafL-I4zBN5O_H7WEH7i-16" value="Validate?" style="rhombus;whiteSpace=wrap;html=1;" vertex="1" parent="1">
          <mxGeometry x="480" y="400" width="80" height="40" as="geometry" />
        </mxCell>
        <mxCell id="pafL-I4zBN5O_H7WEH7i-29" style="edgeStyle=orthogonalEdgeStyle;rounded=0;orthogonalLoop=1;jettySize=auto;html=1;exitX=1;exitY=0.5;exitDx=0;exitDy=0;entryX=0.75;entryY=0;entryDx=0;entryDy=0;" edge="1" parent="1" source="pafL-I4zBN5O_H7WEH7i-19" target="pafL-I4zBN5O_H7WEH7i-2">
          <mxGeometry relative="1" as="geometry">
            <Array as="points">
              <mxPoint x="590" y="420" />
              <mxPoint x="590" y="210" />
              <mxPoint x="250" y="210" />
            </Array>
          </mxGeometry>
        </mxCell>
        <mxCell id="pafL-I4zBN5O_H7WEH7i-19" value="" style="ellipse;whiteSpace=wrap;html=1;aspect=fixed;" vertex="1" parent="1">
          <mxGeometry x="560" y="415" width="10" height="10" as="geometry" />
        </mxCell>
        <mxCell id="pafL-I4zBN5O_H7WEH7i-27" style="edgeStyle=orthogonalEdgeStyle;rounded=0;orthogonalLoop=1;jettySize=auto;html=1;exitX=0.5;exitY=1;exitDx=0;exitDy=0;entryX=0.5;entryY=0;entryDx=0;entryDy=0;" edge="1" parent="1" source="pafL-I4zBN5O_H7WEH7i-21" target="pafL-I4zBN5O_H7WEH7i-4">
          <mxGeometry relative="1" as="geometry" />
        </mxCell>
        <mxCell id="pafL-I4zBN5O_H7WEH7i-21" value="Validate?" style="rhombus;whiteSpace=wrap;html=1;" vertex="1" parent="1">
          <mxGeometry x="480" y="240" width="80" height="40" as="geometry" />
        </mxCell>
        <mxCell id="pafL-I4zBN5O_H7WEH7i-24" style="edgeStyle=orthogonalEdgeStyle;rounded=0;orthogonalLoop=1;jettySize=auto;html=1;exitX=0.5;exitY=0;exitDx=0;exitDy=0;entryX=0.75;entryY=0;entryDx=0;entryDy=0;" edge="1" parent="1" source="pafL-I4zBN5O_H7WEH7i-22" target="pafL-I4zBN5O_H7WEH7i-2">
          <mxGeometry relative="1" as="geometry" />
        </mxCell>
        <mxCell id="pafL-I4zBN5O_H7WEH7i-22" value="" style="ellipse;whiteSpace=wrap;html=1;aspect=fixed;" vertex="1" parent="1">
          <mxGeometry x="515" y="230" width="10" height="10" as="geometry" />
        </mxCell>
      </root>
    </mxGraphModel>
  </diagram>
</mxfile>
